<svg width="382" height="382" viewBox="0 0 382 382" fill="none" xmlns="http://www.w3.org/2000/svg">
<circle cx="191" cy="191" r="191" fill="#001E2B"/>
<path d="M213.323 90.6444C202.537 77.8469 193.249 64.8495 191.351 62.15C191.151 61.95 190.852 61.95 190.652 62.15C188.754 64.8495 179.466 77.8469 168.68 90.6444C76.0981 208.721 183.261 288.406 183.261 288.406L184.16 289.006C184.959 301.303 186.957 319 186.957 319H190.951H194.946C194.946 319 196.944 301.403 197.743 289.006L198.642 288.306C198.741 288.406 305.905 208.721 213.323 90.6444ZM190.951 286.606C190.951 286.606 186.158 282.507 184.859 280.408V280.207L190.652 151.633C190.652 151.233 191.251 151.233 191.251 151.633L197.044 280.207V280.408C195.745 282.507 190.951 286.606 190.951 286.606Z" fill="#00ED64"/>
</svg>
